HIERARCHY
ROOT Hips
{
  OFFSET -278.344 91.0808 -239.152
  CHANNELS 6 Xposition Yposition Zposition Zrotation Xrotation Yrotation
  JOINT ToSpine
  {
    OFFSET -0.0105055 1.38907 -7.13956
    CHANNELS 3 Zrotation Xrotation Yrotation
    JOINT Spine
    {
      OFFSET 0.0105055 10 1
      CHANNELS 3 Zrotation Xrotation Yrotation
      JOINT Spine1
      {
        OFFSET 0 12 1.60637
        CHANNELS 3 Zrotation Xrotation Yrotation
        JOINT Neck
        {
          OFFSET 0 27 2.26658
          CHANNELS 3 Zrotation Xrotation Yrotation
          JOINT Head
          {
            OFFSET 0 9 2.12705
            CHANNELS 3 Zrotation Xrotation Yrotation
            End Site
            {
              OFFSET 0 11 2
            }
          }
        }
        JOINT LeftShoulder
        {
          OFFSET 8 19.6109 2.86452
          CHANNELS 3 Zrotation Xrotation Yrotation
          JOINT LeftArm
          {
            OFFSET 12 1 0.681055
            CHANNELS 3 Zrotation Xrotation Yrotation
            JOINT LeftForeArm
            {
              OFFSET 19 0 -1.52608
              CHANNELS 3 Zrotation Xrotation Yrotation
              JOINT LeftHand
              {
                OFFSET 23 0 0
                CHANNELS 3 Zrotation Xrotation Yrotation
                End Site
                {
                  OFFSET 10 0 0
                }
              }
            }
          }
        }
        JOINT RightShoulder
        {
          OFFSET -8 19.6109 2.86452
          CHANNELS 3 Zrotation Xrotation Yrotation
          JOINT RightArm
          {
            OFFSET -12 1 0.681055
            CHANNELS 3 Zrotation Xrotation Yrotation
            JOINT RightForeArm
            {
              OFFSET -19 0 -1.52608
              CHANNELS 3 Zrotation Xrotation Yrotation
              JOINT RightHand
              {
                OFFSET -23 0 0
                CHANNELS 3 Zrotation Xrotation Yrotation
                End Site
                {
                  OFFSET -10 0 0
                }
              }
            }
          }
        }
      }
    }
  }
  JOINT LeftUpLeg
  {
    OFFSET 9 -7.17245 0
    CHANNELS 3 Zrotation Xrotation Yrotation
    JOINT LeftLeg
    {
      OFFSET 0 -44.1113 0
      CHANNELS 3 Zrotation Xrotation Yrotation
      JOINT LeftFoot
      {
        OFFSET 0 -36.1829 0
        CHANNELS 3 Zrotation Xrotation Yrotation
        JOINT LeftToeBase
        {
          OFFSET 0 -4.84184 13
          CHANNELS 3 Zrotation Xrotation Yrotation
          End Site
          {
            OFFSET 0 1 6
          }
        }
      }
    }
  }
  JOINT RightUpLeg
  {
    OFFSET -9 -7.17245 0
    CHANNELS 3 Zrotation Xrotation Yrotation
    JOINT RightLeg
    {
      OFFSET 0 -44.0551 0
      CHANNELS 3 Zrotation Xrotation Yrotation
      JOINT RightFoot
      {
        OFFSET 0 -36.1469 0
        CHANNELS 3 Zrotation Xrotation Yrotation
        JOINT RightToeBase
        {
          OFFSET 0 -4.92256 13
          CHANNELS 3 Zrotation Xrotation Yrotation
          End Site
          {
            OFFSET 0 1 6
          }
        }
      }
    }
  }
}
MOTION
Frames:	10
Frame Time:	0.0333333
-278.344 91.0808 -239.152 -0.685148 5.76319 45.6743 0 0 0 3.43284 7.9992 5.04984 -10.1643 -0.256231 7.08071 15.2553 -10.265 -7.77632 -6.37418 5.31546 -2.51986 -31.4955 3.89551 -6.84879 -34.0999 15.824 10.0255 64.2006 -11.7744 -95.6336 -4.25528 0.233631 -6.28234 19.1898 4.40372 13.5006 52.1873 10.8081 -8.7803 -18.277 4.7526 75.9172 0.266898 0.00481175 2.06568 -1.14049 -34.0106 18.5173 -2.02915e-007 43.7361 -18.8196 19.2914 -9.2372 1.57325 0.499812 -5.70219 -0.658544 0.143975 3.02862 -12.0049 5.97263e-007 78.242 -10.6403 -30.8063 -8.54369 -2.35787 0.221966 -59.4147 -37.2638 
-272.872 90.276 -233.203 2.01493 7.07639 47.1324 0 0 0 -1.98007 7.51818 2.32231 -6.82771 1.62679 3.71219 16.77 -11.2817 -5.3615 -5.67417 5.98971 -0.195463 -33.4045 3.8112 -6.13704 -32.9739 14.3533 -4.67758 62.4379 -9.25867 -94.8003 -4.34441 0.209927 -5.53024 21.2523 4.66604 13.2616 52.6843 8.84794 -13.6791 -20.3183 8.15859 69.0299 -1.01865 -0.0455938 5.12546 -4.53726 -29.0797 15.9958 8.11193e-007 48.8019 -17.2676 22.1686 -16.798 3.31371 0.909996 -7.02313 -2.4892 -5.42549 -6.39922 -12.9765 5.77581e-005 89.5558 -16.7757 -33.2875 -12.9751 -3.89399 1.42233 -54.2238 -35.542 
-265.503 89.8859 -225.481 5.82718 7.31046 46.9956 0 0 0 -4.94395 11.0649 -0.522974 -6.64317 1.66577 0.378465 18.1199 -11.0893 -3.04519 -6.08895 6.83519 2.44795 -29.3589 3.83885 -7.30379 -33.3463 13.7115 -21.9455 63.4299 -6.76198 -93.37 -3.66852 0.128211 -4.00185 20.3512 3.87709 10.8906 54.6511 1.79453 -22.8153 -23.13 10.5522 66.794 4.52533 0.214906 5.43501 -8.42423 -18.058 12.0627 -6.31557e-009 48.5508 -13.5411 23.4188 -23.9855 5.0419 0.940585 -11.8001 -1.11598 -11.607 -19.104 -10.0999 180 83.5146 164.507 -36.5634 -15.9092 -5.2861 3.73485 -39.0233 -29.9937 
-257.339 89.3631 -216.645 4.75764 5.33391 44.7726 0 0 0 -2.20806 10.5393 -3.11493 -5.81365 0.839765 -2.4068 14.9533 -5.44141 0.711779 -5.03527 5.93194 5.75547 -25.5454 3.85246 -8.599 -30.6001 10.5335 -31.2566 63.0577 -7.01864 -93.5538 -3.04528 0.130591 -4.90987 18.0869 3.42738 10.3112 53.9538 -2.15602 -33.0425 -19.2259 7.89092 68.5123 3.46865 0.179114 5.91023 -5.59174 -6.97938 14.0573 3.69186e-008 45.7202 -12.5579 24.038 -31.8896 6.96171 1.05286 -12.1965 -1.77321 -9.65909 -32.685 -3.7078 -180 86.0466 168.135 -30.1056 -20.8319 -5.66039 3.8628 -14.5823 -9.97689 
-248.806 90.4327 -207.486 2.04153 3.85869 41.1981 0 0 0 -0.249975 8.58105 -5.62798 -1.15159 0.142386 -5.59341 7.7527 -1.58785 6.29101 -3.66645 6.96682 9.25535 -23.1453 3.32627 -7.76363 -26.9629 5.42788 -32.0679 60.5161 -10.3312 -95.7899 -5.29419 0.265389 -5.73543 14.8517 3.05446 10.4919 49.6053 -2.02347 -39.3407 -12.7903 5.36766 67.605 1.66945 0.0913055 6.26058 -3.66682 5.13219 17.3195 5.4216e-007 34.984 -12.2695 22.4281 -24.1235 4.85176 1.68861 -24.1429 -0.679422 -5.38252 -42.1854 0.522696 1.24403e-006 76.8973 -9.3697 -36.1211 -9.68001 -3.16326 4.86959 -19.8352 -9.30109 
-240.342 93.7444 -199.052 -1.75165 -0.741338 40.1255 0 0 0 7.41011 8.82428 -9.88113 1.46059 1.09011 -9.94476 4.3901 0.738176 11.5675 -5.47015 7.32394 14.0645 -17.4652 2.61687 -7.31471 -25.5231 1.51686 -25.7718 57.1663 -13.9091 -98.8172 -2.93392 0.108135 -4.22064 14.8609 3.46125 12.3286 37.9788 -3.41944 -44.3707 -37.1288 11.09 75.7446 14.8072 0.510337 3.92595 -0.157191 17.9397 12.1323 -2.31895 19.6774 -4.6387 17.1231 -3.05257 0.459669 3.05697 -38.0095 2.35726 3.00767 -38.7364 8.58799 -2.78612e-007 44.8861 -13.0932 -26.6638 3.42557 0.812013 4.42838 -17.3175 -7.97711 
-229.779 92.3226 -186.449 0.232068 0.250323 41.5492 0 0 0 2.82013 5.09113 -12.102 5.17826 2.37182 -12.8344 0.0159489 -0.0722852 14.2215 -5.99474 8.35398 15.4927 -13.1819 2.61579 -9.39348 -26.1313 -0.685465 -21.5847 57.4452 -14.7985 -99.2614 -1.93859 0.0544648 -3.21829 12.28 2.83777 11.0618 32.2752 -3.92839 -46.3736 -27.6679 8.42429 74.3883 11.6615 0.708566 6.93029 -3.10442 23.2843 7.49964 1.08614 25.7761 -4.97687 13.479 3.96035 -0.468186 1.50559 -18.3658 -3.23997 -4.9305 -40.1248 -3.07145 -4.60607e-009 34.7553 -0.179291 -14.4232 -0.500964 -0.06339 4.07369 -15.6179 -8.62016 
-221.347 91.7178 -176.704 0.163224 1.58487 43.0923 0 0 0 0.737402 0.787033 -13.2957 8.65628 5.5014 -14.6147 -2.85814 -0.31693 15.1817 -5.77013 7.90621 15.5203 -11.964 2.50538 -9.56154 -24.1662 -0.525432 -20.4759 54.7192 -13.4087 -99.3178 -1.91629 0.0392834 -2.34855 11.1665 2.65855 10.8906 28.7928 -6.05156 -48.9915 -14.2512 4.72196 72.0419 4.97147 0.293095 6.74378 -3.85263 20.7153 1.81814 -7.24591e-009 39.9219 -6.44713 19.0259 2.7948 -0.46843 1.3806 -17.5364 -2.20813 -7.31476 -38.5718 -4.92151 0.0216154 21.8212 5.313 -16.1034 -1.13468 -0.160519 3.52264 -12.9297 -5.53259 
-213.907 90.7192 -167.677 2.15475 1.71916 43.5515 0 0 0 0.218673 1.78344 -12.7602 8.11586 4.73564 -14.0972 -1.49013 4.02122 13.6009 -7.4144 6.16277 14.8733 -13.9841 2.76005 -9.62858 -21.3391 2.28969 -17.0402 51.0044 -11.9701 -99.5324 -2.48728 0.10065 -4.63379 13.2052 3.11082 11.7928 25.8509 -7.87247 -51.3197 -10.9622 3.91882 70.5653 3.6029 0.214836 6.82261 -3.9706 16.2566 6.24223 -2.27684e-007 57.7707 -7.72615 22.1799 0.919709 -0.180276 1.55179 -21.6981 -1.27727 -8.78416 -36.9376 -5.4331 -1.37716e-008 24.7231 0.9867 -21.369 -1.80525 -0.340627 4.31339 -16.6266 -6.98987 
-207.081 90.4679 -159.648 3.60899 -0.714972 43.4128 0 0 0 1.47903 4.40413 -10.3204 9.26835 6.41853 -12.6966 -0.274587 5.01818 11.0581 -8.51479 5.75314 13.0787 -17.9719 3.09766 -9.04623 -20.2925 6.12828 -16.2026 48.5941 -8.08803 -97.0722 -1.79482 0.0981058 -6.25691 15.4002 3.29465 11.2441 23.9514 -10.6404 -47.8982 -13.554 5.81148 67.2168 4.06865 0.252587 7.1019 -2.26024 8.84638 11.2189 -4.29724e-008 75.3423 4.43026 23.3547 -3.87586 0.801348 1.66768 -22.1098 -3.2857 -8.44962 -32.303 -6.81093 9.43325e-010 29.6902 5.3278 -17.2417 5.31206 0.805917 4.63422 -17.7363 -4.65836 
